<svg width="80" height="80" viewBox="0 0 80 80" fill="none" xmlns="http://www.w3.org/2000/svg">
<path d="M80 5.21739V17.3913C80 17.8526 79.8168 18.2949 79.4906 18.6211C79.1645 18.9472 78.7221 19.1304 78.2609 19.1304C77.7996 19.1304 77.3573 18.9472 77.0311 18.6211C76.705 18.2949 76.5217 17.8526 76.5217 17.3913V5.21739C76.5217 4.75615 76.3385 4.31379 76.0124 3.98764C75.6862 3.66149 75.2439 3.47826 74.7826 3.47826H62.6087C62.1474 3.47826 61.7051 3.29503 61.3789 2.96888C61.0528 2.64273 60.8696 2.20038 60.8696 1.73913C60.8696 1.27788 61.0528 0.83553 61.3789 0.50938C61.7051 0.18323 62.1474 0 62.6087 0H74.7826C76.1663 0 77.4934 0.549687 78.4719 1.52814C79.4503 2.50659 80 3.83365 80 5.21739ZM78.2609 60.8696C77.7996 60.8696 77.3573 61.0528 77.0311 61.3789C76.705 61.7051 76.5217 62.1474 76.5217 62.6087V74.7826C76.5217 75.2439 76.3385 75.6862 76.0124 76.0124C75.6862 76.3385 75.2439 76.5217 74.7826 76.5217H62.6087C62.1474 76.5217 61.7051 76.705 61.3789 77.0311C61.0528 77.3573 60.8696 77.7996 60.8696 78.2609C60.8696 78.7221 61.0528 79.1645 61.3789 79.4906C61.7051 79.8168 62.1474 80 62.6087 80H74.7826C76.1663 80 77.4934 79.4503 78.4719 78.4719C79.4503 77.4934 80 76.1663 80 74.7826V62.6087C80 62.1474 79.8168 61.7051 79.4906 61.3789C79.1645 61.0528 78.7221 60.8696 78.2609 60.8696ZM17.3913 76.5217H5.21739C4.75615 76.5217 4.31379 76.3385 3.98764 76.0124C3.66149 75.6862 3.47826 75.2439 3.47826 74.7826V62.6087C3.47826 62.1474 3.29503 61.7051 2.96888 61.3789C2.64273 61.0528 2.20038 60.8696 1.73913 60.8696C1.27788 60.8696 0.83553 61.0528 0.50938 61.3789C0.18323 61.7051 0 62.1474 0 62.6087V74.7826C0 76.1663 0.549687 77.4934 1.52814 78.4719C2.50659 79.4503 3.83365 80 5.21739 80H17.3913C17.8526 80 18.2949 79.8168 18.6211 79.4906C18.9472 79.1645 19.1304 78.7221 19.1304 78.2609C19.1304 77.7996 18.9472 77.3573 18.6211 77.0311C18.2949 76.705 17.8526 76.5217 17.3913 76.5217ZM1.73913 19.1304C2.20038 19.1304 2.64273 18.9472 2.96888 18.6211C3.29503 18.2949 3.47826 17.8526 3.47826 17.3913V5.21739C3.47826 4.75615 3.66149 4.31379 3.98764 3.98764C4.31379 3.66149 4.75615 3.47826 5.21739 3.47826H17.3913C17.8526 3.47826 18.2949 3.29503 18.6211 2.96888C18.9472 2.64273 19.1304 2.20038 19.1304 1.73913C19.1304 1.27788 18.9472 0.83553 18.6211 0.50938C18.2949 0.18323 17.8526 0 17.3913 0H5.21739C3.83365 0 2.50659 0.549687 1.52814 1.52814C0.549687 2.50659 0 3.83365 0 5.21739V17.3913C0 17.8526 0.18323 18.2949 0.50938 18.6211C0.83553 18.9472 1.27788 19.1304 1.73913 19.1304ZM60.8696 59.1304C60.5996 59.1304 60.3333 59.0676 60.0918 58.9468C59.8503 58.8261 59.6403 58.6508 59.4783 58.4348C57.2103 55.4109 54.2695 52.9565 50.8887 51.2661C47.5079 49.5757 43.7799 48.6957 40 48.6957C36.2201 48.6957 32.4921 49.5757 29.1113 51.2661C25.7305 52.9565 22.7897 55.4109 20.5217 58.4348C20.245 58.8038 19.833 59.0477 19.3764 59.113C18.9198 59.1782 18.456 59.0594 18.087 58.7826C17.718 58.5059 17.474 58.0939 17.4088 57.6373C17.3436 57.1806 17.4624 56.7168 17.7391 56.3478C21.2687 51.6134 26.2201 48.1322 31.8696 46.413C28.9512 44.639 26.6931 41.9591 25.4398 38.782C24.1865 35.605 24.0067 32.1052 24.9279 28.8165C25.8491 25.5278 27.8206 22.6306 30.5419 20.5668C33.2631 18.5031 36.5847 17.386 40 17.386C43.4153 17.386 46.7369 18.5031 49.4581 20.5668C52.1794 22.6306 54.1509 25.5278 55.0721 28.8165C55.9933 32.1052 55.8135 35.605 54.5602 38.782C53.3069 41.9591 51.0488 44.639 48.1304 46.413C53.7799 48.1322 58.7313 51.6134 62.2609 56.3478C62.4547 56.6062 62.5727 56.9134 62.6017 57.2351C62.6307 57.5568 62.5695 57.8802 62.4251 58.1691C62.2807 58.4579 62.0586 58.7009 61.7839 58.8707C61.5091 59.0405 61.1925 59.1304 60.8696 59.1304ZM40 45.2174C42.4078 45.2174 44.7615 44.5034 46.7635 43.1657C48.7655 41.828 50.3258 39.9267 51.2472 37.7022C52.1686 35.4777 52.4097 33.03 51.94 30.6685C51.4703 28.307 50.3108 26.1378 48.6083 24.4352C46.9057 22.7327 44.7365 21.5732 42.375 21.1035C40.0135 20.6337 37.5657 20.8748 35.3412 21.7962C33.1168 22.7177 31.2154 24.278 29.8778 26.28C28.5401 28.282 27.8261 30.6357 27.8261 33.0435C27.8261 36.2722 29.1087 39.3687 31.3917 41.6517C33.6748 43.9348 36.7713 45.2174 40 45.2174Z" fill="#1692C6" fill-opacity="0.3"/>
</svg>
