<svg width="14" height="13" viewBox="0 0 14 13" fill="none" xmlns="http://www.w3.org/2000/svg">
<path d="M12.7 9.19971C12.8657 9.19971 13 9.33402 13 9.49971C13 9.66539 12.8657 9.79971 12.7 9.79971L7.3 9.79971C7.13431 9.79971 7 9.66539 7 9.49971C7 9.33402 7.13431 9.19971 7.3 9.19971L12.7 9.19971Z" fill="white"/>
<path fill-rule="evenodd" clip-rule="evenodd" d="M12.7016 8.8501C13.0605 8.8501 13.3516 9.14111 13.3516 9.5001C13.3516 9.85908 13.0605 10.1501 12.7016 10.1501L7.30156 10.1501C6.94258 10.1501 6.65156 9.85908 6.65156 9.5001C6.65156 9.14111 6.94258 8.8501 7.30156 8.8501L12.7016 8.8501Z" fill="white"/>
<path d="M10.3008 12.2C10.3008 12.3657 10.1665 12.5 10.0008 12.5C9.8351 12.5 9.70078 12.3657 9.70078 12.2L9.70078 6.8C9.70078 6.63431 9.8351 6.5 10.0008 6.5C10.1665 6.5 10.3008 6.63431 10.3008 6.8L10.3008 12.2Z" fill="white"/>
<path fill-rule="evenodd" clip-rule="evenodd" d="M10.6484 12.2001C10.6484 12.5591 10.3574 12.8501 9.99844 12.8501C9.63945 12.8501 9.34844 12.5591 9.34844 12.2001L9.34844 6.8001C9.34844 6.44111 9.63945 6.1501 9.99844 6.1501C10.3574 6.1501 10.6484 6.44111 10.6484 6.8001L10.6484 12.2001Z" fill="white"/>
<path fill-rule="evenodd" clip-rule="evenodd" d="M0 0.75C0 0.335786 0.335786 0 0.75 0H12.25C12.6642 0 13 0.335786 13 0.75C13 1.16421 12.6642 1.5 12.25 1.5H0.75C0.335786 1.5 0 1.16421 0 0.75Z" fill="white"/>
<path fill-rule="evenodd" clip-rule="evenodd" d="M0 4.75C0 4.33579 0.335786 4 0.75 4H12.25C12.6642 4 13 4.33579 13 4.75C13 5.16421 12.6642 5.5 12.25 5.5H0.75C0.335786 5.5 0 5.16421 0 4.75Z" fill="white"/>
<path fill-rule="evenodd" clip-rule="evenodd" d="M0 9.75C0 9.33579 0.335786 9 0.75 9H4.25C4.66421 9 5 9.33579 5 9.75C5 10.1642 4.66421 10.5 4.25 10.5H0.75C0.335786 10.5 0 10.1642 0 9.75Z" fill="white"/>
</svg>
